<svg version="1.1" xmlns="http://www.w3.org/2000/svg" viewBox="0 0 1028 698" width="1028" height="698">
  <!-- svg-source:excalidraw -->
  
  <defs>
    <style>
      @font-face {
        font-family: "Virgil";
        src: url("https://excalidraw.com/Virgil.woff2");
      }
      @font-face {
        font-family: "Cascadia";
        src: url("https://excalidraw.com/Cascadia.woff2");
      }
    </style>
  </defs>
  <rect x="0" y="0" width="1028" height="698" fill="#ffffff"></rect><g stroke-linecap="round" transform="translate(458 10) rotate(0 91.5 33.5)"><path d="M-1.33 -1.19 C40.95 -2.74, 79.66 -1.76, 182.91 -0.2 M0.14 0.22 C45.83 2.51, 90.02 1.62, 182.41 -0.53 M184.78 0.23 C181.35 14.85, 182.89 31.43, 181.84 67.83 M182.43 -0.63 C183.85 17.9, 183.44 36.26, 182.85 67.96 M184.96 66.32 C133.67 64.85, 83.68 68.33, 1.72 65.53 M183.49 67.88 C123.31 65.39, 64.97 65.14, -0.18 66.93 M1.14 66.34 C1.26 45.32, -0.36 26.26, -0.48 1.86 M0.27 67.53 C0.46 49.85, -1 31.58, 0.88 0.16" stroke="#000000" stroke-width="1" fill="none"></path></g><g transform="translate(526.5 28) rotate(0 21 11.5)"><text x="21" y="18" font-family="Helvetica, Segoe UI Emoji" font-size="20px" fill="#000000" text-anchor="middle" style="white-space: pre;" direction="ltr">GKE</text></g><g stroke-linecap="round" transform="translate(357 127) rotate(0 77 34.5)"><path d="M1.51 -1.09 C47.74 0.65, 90.61 0.97, 154.23 -0.32 M0.58 0.7 C36.57 0.25, 70.74 -1.06, 154.59 -0.64 M153.29 -1.49 C153.99 22.89, 155.16 43.52, 153.62 69.76 M153.11 0.96 C153.79 13.09, 152.42 27.88, 154.29 68.68 M154.58 67.59 C108.48 68.2, 62.41 67.53, 1.9 67.2 M153.57 68.03 C107.31 69.63, 58.13 69.49, 0.19 68.08 M1.4 67.08 C-1.75 46.62, 1.04 21.88, -0.7 -0.05 M-0.31 68.37 C0.93 45.59, -0.76 19.77, 0.82 0.63" stroke="#000000" stroke-width="1" fill="none"></path></g><g stroke-linecap="round" transform="translate(679 127) rotate(0 75.5 32.5)"><path d="M-0.86 -1.94 C48.75 -1.68, 92.52 -1.94, 151.38 -1.83 M0.7 -0.96 C50.41 -0.8, 102.76 -1.53, 150.65 -0.02 M150.39 -1.27 C152.92 24.98, 149.56 45.14, 152.64 66.25 M151.92 -0.47 C151.28 17.55, 150.72 36.07, 151.32 65.34 M149.14 66.95 C114.53 65.66, 78.06 66.92, 0.58 65.33 M150.31 64.16 C117.4 63.95, 85.17 63.93, -0.12 65.58 M1.74 64.31 C-1.67 38.54, 0.4 14.1, 0.07 1.2 M0.72 64.38 C-1.26 42.37, -0.12 20.51, 0.09 -0.04" stroke="#000000" stroke-width="1" fill="none"></path></g><g transform="translate(382.5 138.5) rotate(0 51.5 23)"><text x="51.5" y="18" font-family="Helvetica, Segoe UI Emoji" font-size="20px" fill="#000000" text-anchor="middle" style="white-space: pre;" direction="ltr">default</text><text x="51.5" y="41" font-family="Helvetica, Segoe UI Emoji" font-size="20px" fill="#000000" text-anchor="middle" style="white-space: pre;" direction="ltr">namespace</text></g><g transform="translate(703 136.5) rotate(0 51.5 23)"><text x="51.5" y="18" font-family="Helvetica, Segoe UI Emoji" font-size="20px" fill="#000000" text-anchor="middle" style="white-space: pre;" direction="ltr">monitoring</text><text x="51.5" y="41" font-family="Helvetica, Segoe UI Emoji" font-size="20px" fill="#000000" text-anchor="middle" style="white-space: pre;" direction="ltr">namespace</text></g><g stroke-linecap="round" transform="translate(205 234) rotate(0 50.5 37)"><path d="M0.11 -1.72 C37.91 0.95, 78.09 -1.39, 100.51 -1.84 M0.35 0.06 C27.39 0.29, 55.59 -0.05, 101.05 -0.49 M102.74 -1.77 C103.2 21.69, 102.28 45.7, 101.55 73.06 M101.1 -0.25 C100.4 16.63, 101.6 33.88, 100.8 74.71 M100.44 74.29 C76.04 72.75, 47.65 75.68, 0.91 72.7 M101.51 73.68 C60.53 74.78, 21.67 73.24, 0.8 73.45 M0.52 74.35 C-0.38 55.03, -0.36 35.52, 0.94 -1.33 M0.87 74.29 C-0.62 53.5, 0.92 31.04, 0.93 0.2" stroke="#000000" stroke-width="1" fill="none"></path></g><g stroke-linecap="round" transform="translate(205 326) rotate(0 50 39.5)"><path d="M1.11 -0.97 C38.7 0.37, 79.04 1.17, 99.4 -0.53 M-0.86 -0.37 C29.19 -0.69, 55.42 -0.41, 100.56 0.03 M100.64 1.53 C101.52 28.81, 98.54 59.85, 100.91 78.46 M99.12 0.05 C99.78 17.17, 99.98 32.53, 99.33 78.43 M101.74 80.06 C68.67 76.23, 33.58 79.4, 0.79 77.33 M100.82 79.76 C72.49 77.78, 44.77 77.77, 0.76 79.68 M-0.61 77.6 C0.78 53.56, 1.5 29.44, -1.45 -0.78 M-0.2 78.54 C-0.87 56.43, -0.55 35.83, -0.74 -0.65" stroke="#000000" stroke-width="1" fill="none"></path></g><g stroke-linecap="round" transform="translate(621 246) rotate(0 63 55.5)"><path d="M-0.15 1.1 C51.43 -1.95, 98.97 -1.31, 126.79 0.72 M0.4 -0.09 C49.77 -0.63, 97.97 -1.72, 125.01 0.87 M124.07 1.09 C127.22 43.18, 124.61 86.47, 124.77 112.53 M125.3 -0.58 C126.31 30.52, 126.25 63.64, 126.59 110.17 M124.28 110.05 C91.09 111.56, 59.96 112.96, 1.97 109.7 M125.86 111.86 C89.53 111.31, 52.03 110.89, 0.04 111.2 M0.37 109.02 C-2.2 84.41, -0.82 60.29, 0.83 -0.53 M-0.34 111.48 C0.23 81.49, 0.5 50.2, 0.8 0.97" stroke="#000000" stroke-width="1" fill="none"></path></g><g stroke-linecap="round" transform="translate(762 249) rotate(0 81.5 50.5)"><path d="M-0.88 1.96 C62.41 -0.65, 126.96 0.88, 161.54 0.49 M0.59 -0.09 C33.41 -0.5, 66.7 -1.09, 162.79 0.64 M161.96 -1.44 C163.82 34, 163.93 70.98, 162.99 100.13 M162.86 -0.99 C162.93 27.55, 164.13 55.99, 162.82 100.43 M162.15 101.87 C126.64 99.23, 93.03 99.94, -0.2 99.72 M163.48 101.97 C115.03 101.92, 65.31 101.36, -0.84 100.66 M1.34 101.16 C1.2 69.05, -1.11 36.72, -0.17 -0.41 M0.36 100.06 C1.27 65.44, 0.24 29.65, 0.52 -0.79" stroke="#000000" stroke-width="1" fill="none"></path></g><g transform="translate(783.5 263) rotate(0 59.5 34.5)"><text x="59.5" y="18" font-family="Helvetica, Segoe UI Emoji" font-size="20px" fill="#000000" text-anchor="middle" style="white-space: pre;" direction="ltr">ingress-nginx</text><text x="59.5" y="41" font-family="Helvetica, Segoe UI Emoji" font-size="20px" fill="#000000" text-anchor="middle" style="white-space: pre;" direction="ltr">controller</text><text x="59.5" y="64" font-family="Helvetica, Segoe UI Emoji" font-size="20px" fill="#000000" text-anchor="middle" style="white-space: pre;" direction="ltr">(monitoring)</text></g><g stroke-linecap="round" transform="translate(388.5 255.5) rotate(0 81.5 50.5)"><path d="M1.49 -0.95 C47.46 -2.15, 94.23 0.77, 164.88 1.1 M0.07 -0.38 C37.06 1.35, 74.26 2, 163.81 -0.59 M164.58 0.1 C163.6 39.17, 162.04 75.57, 163.24 100.7 M162.98 -0.54 C163.8 24.32, 162.35 49.17, 162.67 100.14 M161.96 99.57 C110.62 103.67, 62.47 101.82, -1.21 101.11 M163.03 100.5 C100.69 102.63, 39.96 101.6, -0.8 101.1 M1.17 102.91 C-0.41 79.43, 0.93 53.75, 1.25 -1.21 M0.23 100.95 C1.36 78.95, -0.29 56.73, 0.2 -0.91" stroke="#000000" stroke-width="1" fill="none"></path></g><g transform="translate(411 273.5) rotate(0 59.5 34.5)"><text x="59.5" y="18" font-family="Helvetica, Segoe UI Emoji" font-size="20px" fill="#000000" text-anchor="middle" style="white-space: pre;" direction="ltr">ingress-nginx</text><text x="59.5" y="41" font-family="Helvetica, Segoe UI Emoji" font-size="20px" fill="#000000" text-anchor="middle" style="white-space: pre;" direction="ltr">controller</text><text x="59.5" y="64" font-family="Helvetica, Segoe UI Emoji" font-size="20px" fill="#000000" text-anchor="middle" style="white-space: pre;" direction="ltr">(monitoring)</text></g><g transform="translate(629.5 252.5) rotate(0 53 46)"><text x="53" y="18" font-family="Helvetica, Segoe UI Emoji" font-size="20px" fill="#000000" text-anchor="middle" style="white-space: pre;" direction="ltr">kube</text><text x="53" y="41" font-family="Helvetica, Segoe UI Emoji" font-size="20px" fill="#000000" text-anchor="middle" style="white-space: pre;" direction="ltr">prometheus</text><text x="53" y="64" font-family="Helvetica, Segoe UI Emoji" font-size="20px" fill="#000000" text-anchor="middle" style="white-space: pre;" direction="ltr">stack</text><text x="53" y="87" font-family="Helvetica, Segoe UI Emoji" font-size="20px" fill="#000000" text-anchor="middle" style="white-space: pre;" direction="ltr">(grafana)</text></g><g transform="translate(233 235.5) rotate(0 22.5 34.5)"><text x="22.5" y="18" font-family="Helvetica, Segoe UI Emoji" font-size="20px" fill="#000000" text-anchor="middle" style="white-space: pre;" direction="ltr">node</text><text x="22.5" y="41" font-family="Helvetica, Segoe UI Emoji" font-size="20px" fill="#000000" text-anchor="middle" style="white-space: pre;" direction="ltr">app</text><text x="22.5" y="64" font-family="Helvetica, Segoe UI Emoji" font-size="20px" fill="#000000" text-anchor="middle" style="white-space: pre;" direction="ltr">blue</text></g><g transform="translate(229.5 331) rotate(0 25.5 34.5)"><text x="25.5" y="18" font-family="Helvetica, Segoe UI Emoji" font-size="20px" fill="#000000" text-anchor="middle" style="white-space: pre;" direction="ltr">node</text><text x="25.5" y="41" font-family="Helvetica, Segoe UI Emoji" font-size="20px" fill="#000000" text-anchor="middle" style="white-space: pre;" direction="ltr">app</text><text x="25.5" y="64" font-family="Helvetica, Segoe UI Emoji" font-size="20px" fill="#000000" text-anchor="middle" style="white-space: pre;" direction="ltr">green</text></g><g stroke-linecap="round" transform="translate(273 435) rotate(0 81 34.5)"><path d="M-1.79 -1.02 C41.91 1.38, 86.06 -1.11, 161.21 -0.15 M0.02 -0.69 C63.23 -1.45, 125.23 -1.46, 162.74 -0.01 M161.91 -0.05 C164.26 28.66, 163.1 55.42, 161.99 70.02 M161.36 -0.64 C161.46 15.82, 162.87 31.34, 161.13 68.79 M160.64 67.27 C114.95 68.52, 63.74 70.09, 1.77 67.08 M162.02 69.81 C113.63 69.7, 63.35 71.09, 0.72 68.05 M-0.13 69.65 C-1.39 53.6, -0.2 33.93, -1.28 -1.71 M-0.09 68.33 C-1.3 42.04, -0.93 15.92, -0.06 0.3" stroke="#000000" stroke-width="1" fill="none"></path></g><g stroke-linecap="round" transform="translate(672 411) rotate(0 88.5 37.5)"><path d="M0 0.12 C51.77 0, 105.01 1.52, 178.73 -0.15 M0.89 0.7 C37.06 -0.88, 76.3 -0.81, 176.57 -0.02 M176.29 1.78 C176.32 30.75, 177.5 56.8, 175.61 76.3 M177.93 -0.78 C176.22 28.26, 175.91 56.56, 177.22 74.27 M178.85 73.74 C135.04 75.15, 92.14 75.52, -0.58 74.77 M176.3 74.49 C125.86 76.42, 72.07 76.36, 0.85 74.3 M0.14 75.23 C1.34 58.48, 0.65 43.25, -1.34 1.19 M0.46 74.54 C0.22 49.23, 0.54 23.05, -0.01 0.64" stroke="#000000" stroke-width="1" fill="none"></path></g><g transform="translate(686.5 437) rotate(0 74.5 11.5)"><text x="74.5" y="18" font-family="Helvetica, Segoe UI Emoji" font-size="20px" fill="#000000" text-anchor="middle" style="white-space: pre;" direction="ltr">ingress-resource</text></g><g transform="translate(280 458.5) rotate(0 74.5 11.5)"><text x="74.5" y="18" font-family="Helvetica, Segoe UI Emoji" font-size="20px" fill="#000000" text-anchor="middle" style="white-space: pre;" direction="ltr">ingress-resource</text></g><g stroke-linecap="round"><g transform="translate(308 272) rotate(0 24.112855162899393 76.00037013122869)"><path d="M-0.01 0.58 C7.74 1.09, 37.54 -24.6, 45.53 2.15 C53.52 28.9, 47.5 134.32, 47.94 161.06 M-1.48 -0.16 C6.25 0.56, 36.67 -23.77, 44.86 3.24 C53.06 30.25, 47.59 135.71, 47.66 161.89" stroke="#000000" stroke-width="1" fill="none"></path></g><g transform="translate(308 272) rotate(0 24.112855162899393 76.00037013122869)"><path d="M39.01 134.36 C38.49 141.2, 40.44 147.71, 48.64 161.64 M37.97 133.76 C42.78 144.79, 44.43 154.45, 48.21 161.27" stroke="#000000" stroke-width="1" fill="none"></path></g><g transform="translate(308 272) rotate(0 24.112855162899393 76.00037013122869)"><path d="M59.52 134.82 C54.56 141.56, 52.05 147.97, 48.64 161.64 M58.49 134.22 C55.63 145.03, 49.61 154.52, 48.21 161.27" stroke="#000000" stroke-width="1" fill="none"></path></g></g><g stroke-linecap="round"><g transform="translate(306 363) rotate(0 26.495123144984234 0.4199941760851118)"><path d="M-0.91 0.64 C8.21 0.65, 44.79 -0.23, 53.9 -0.06 M0.81 -0.07 C9.92 0.06, 44.67 0.97, 53.43 0.92" stroke="#000000" stroke-width="1" fill="none"></path></g></g><g stroke-linecap="round"><g transform="translate(436 475) rotate(0 25.13477036405544 -54.83726860513676)"><path d="M1.2 1.1 C9.01 0.91, 38.58 18, 46.02 -1.83 C53.47 -21.66, 45.76 -98.53, 45.88 -117.9 M0.37 0.63 C8.18 0.64, 37.64 18.88, 45.61 -0.73 C53.58 -20.35, 47.98 -97.6, 48.18 -117.05" stroke="#000000" stroke-width="1" fill="none"></path></g><g transform="translate(436 475) rotate(0 25.13477036405544 -54.83726860513676)"><path d="M61.08 -87.46 C55.49 -97.34, 52.84 -102.36, 46.47 -117.63 M59.61 -88.83 C56.5 -98.53, 51.18 -106.95, 49.03 -117.15" stroke="#000000" stroke-width="1" fill="none"></path></g><g transform="translate(436 475) rotate(0 25.13477036405544 -54.83726860513676)"><path d="M40.57 -86.87 C39.69 -97.09, 41.76 -102.25, 46.47 -117.63 M39.1 -88.24 C42.84 -98.22, 44.37 -106.83, 49.03 -117.15" stroke="#000000" stroke-width="1" fill="none"></path></g></g><g stroke-linecap="round"><g transform="translate(701 357) rotate(0 0.5918110877275353 26.636511360327688)"><path d="M-0.81 -0.84 C-0.5 8.02, 1.4 44.08, 1.99 53.07 M0.97 1.33 C1.1 10.33, 0.8 45.35, 1.04 54.11" stroke="#000000" stroke-width="1" fill="none"></path></g><g transform="translate(701 357) rotate(0 0.5918110877275353 26.636511360327688)"><path d="M-9.78 28.78 C-7.01 38.07, -4.06 46.7, 1.03 52.56 M-8.51 28.07 C-5.39 36.69, -1.86 45.24, 1.77 54.37" stroke="#000000" stroke-width="1" fill="none"></path></g><g transform="translate(701 357) rotate(0 0.5918110877275353 26.636511360327688)"><path d="M8.7 28.65 C5.68 37.86, 2.84 46.53, 1.03 52.56 M9.97 27.94 C7.22 36.42, 4.89 45.01, 1.77 54.37" stroke="#000000" stroke-width="1" fill="none"></path></g></g><g stroke-linecap="round"><g transform="translate(821 411) rotate(0 1.4794595748186339 -30.069556841561564)"><path d="M-0.49 -1.07 C-0.06 -10.84, 2.72 -49.63, 3.45 -59.34 M1.45 0.98 C1.6 -9.07, 1.94 -50.74, 2.21 -61.12" stroke="#000000" stroke-width="1" fill="none"></path></g><g transform="translate(821 411) rotate(0 1.4794595748186339 -30.069556841561564)"><path d="M10.24 -33.68 C9.64 -43.55, 6.02 -51.97, 1.05 -62.58 M12.05 -32.23 C9.14 -40.04, 6.77 -46.29, 2.85 -61.32" stroke="#000000" stroke-width="1" fill="none"></path></g><g transform="translate(821 411) rotate(0 1.4794595748186339 -30.069556841561564)"><path d="M-10.28 -34.01 C-3.23 -43.67, 0.79 -51.97, 1.05 -62.58 M-8.47 -32.55 C-6.19 -40.34, -3.38 -46.5, 2.85 -61.32" stroke="#000000" stroke-width="1" fill="none"></path></g></g><g stroke-linecap="round" transform="translate(17 32) rotate(0 59.5 36)"><path d="M1.99 1 C40.22 -1.47, 83.87 1.33, 120.85 -0.24 M0.23 0.88 C29.68 -1.13, 61.13 -0.48, 118.39 0.82 M120.7 -1.68 C120.73 25.86, 118.35 53.45, 117.16 72.72 M119.95 -0.66 C119.66 16.67, 119.95 32.65, 118.62 71.98 M119.96 71.76 C84.76 72.03, 48.31 71.93, -1.39 70.57 M119.64 72.63 C89.81 72.75, 61.6 72.55, 0.98 72.94 M-1.35 71.12 C0.52 44.5, 0.22 18.49, -1.87 1.82 M-0.98 71.98 C0.76 42.99, -0.2 15.45, 0.3 0.45" stroke="#000000" stroke-width="1" fill="none"></path></g><g transform="translate(26 53) rotate(0 48 11.5)"><text x="0" y="18" font-family="Helvetica, Segoe UI Emoji" font-size="20px" fill="#000000" text-anchor="start" style="white-space: pre;" direction="ltr">cloud build</text></g><g stroke-linecap="round" transform="translate(93 145) rotate(0 30 81.5)"><path d="M0.1 -0.45 C20.79 1, 45.02 -0.37, 58.69 1.18 M-0.7 0.51 C14.14 0.65, 30.3 0.58, 60.2 -0.73 M58.14 0.35 C60.69 40.81, 59.12 78.63, 60.42 161.77 M59.44 0.05 C59.22 51.29, 58.77 101.81, 59.58 163.48 M59.43 161.13 C48.4 162.79, 34.32 164.96, 0.77 161.07 M60.19 163.81 C35.64 163.37, 12.24 162.58, -0.54 163.77 M1.77 163.51 C-3.16 127.89, -0.97 88.6, 1.11 1.91 M-0.06 164 C1.48 122.22, 0.24 81.07, -0.42 -0.37" stroke="#000000" stroke-width="1" fill="none"></path></g><g stroke-linecap="round" transform="translate(10 145) rotate(0 29.5 81)"><path d="M0.82 -0.57 C18.65 0.86, 40.58 -0.24, 60.71 0.77 M-0.12 0.19 C12.82 -0.69, 24.47 -0.28, 58.66 -0.54 M58.66 1.77 C58.28 59.33, 59.23 122.62, 57.73 163.11 M59.66 -0.06 C59.22 65.03, 58.49 127.84, 59.18 161.58 M59.98 162.65 C41.69 163.38, 26.67 160.68, -0.23 161.97 M59.89 162.38 C38.44 162.43, 19.44 162.91, 0.75 161.22 M1.33 162.72 C1.2 103.18, -0.54 44.56, 0.07 0.55 M0.45 162.73 C-0.76 105.95, -0.36 50.59, 0.75 -0.53" stroke="#000000" stroke-width="1" fill="none"></path></g><g transform="translate(101.5 215) rotate(268.9769698113322 21.5 11.5)"><text x="21.5" y="18" font-family="Helvetica, Segoe UI Emoji" font-size="20px" fill="#000000" text-anchor="middle" style="white-space: pre;" direction="ltr">main</text></g><g transform="translate(-18 214.5) rotate(270 57.5 11.5)"><text x="57.5" y="18" font-family="Helvetica, Segoe UI Emoji" font-size="20px" fill="#000000" text-anchor="middle" style="white-space: pre;" direction="ltr">development</text></g><g stroke-linecap="round"><g transform="translate(155 253) rotate(0 24.14606638252735 0.6080550224126569)"><path d="M-0.61 -0.55 C7.44 -0.65, 40.78 -0.11, 48.9 -0.11 M1.27 1.77 C9.1 1.83, 39.69 1.59, 47.9 1.38" stroke="#000000" stroke-width="1" fill="none"></path></g><g transform="translate(155 253) rotate(0 24.14606638252735 0.6080550224126569)"><path d="M24.09 9.95 C32.83 5.7, 40.16 2.55, 49.36 3.26 M24.07 10.01 C33.44 6.05, 40.81 3.47, 47.81 1.85" stroke="#000000" stroke-width="1" fill="none"></path></g><g transform="translate(155 253) rotate(0 24.14606638252735 0.6080550224126569)"><path d="M23.83 -6.81 C32.72 -5.18, 40.14 -2.45, 49.36 3.26 M23.81 -6.75 C33.32 -4.74, 40.78 -1.35, 47.81 1.85" stroke="#000000" stroke-width="1" fill="none"></path></g></g><g stroke-linecap="round"><g transform="translate(45 308) rotate(0 73.42316069354823 38.141478905129674)"><path d="M-0.38 -0.39 C-0.26 11.24, -24.65 56.71, 1.67 69.64 C27.98 82.56, 131.72 75.97, 157.52 77.16 M1.62 -1.64 C1.47 10.17, -25.36 58.14, 0.54 70.98 C26.45 83.83, 131.04 74.81, 157.03 75.42" stroke="#000000" stroke-width="1" fill="none"></path></g><g transform="translate(45 308) rotate(0 73.42316069354823 38.141478905129674)"><path d="M128.51 85.96 C139.06 83.29, 152.1 77.37, 158.34 76.07 M129.55 86.73 C140.51 83.3, 149.64 78.69, 157.82 74.54" stroke="#000000" stroke-width="1" fill="none"></path></g><g transform="translate(45 308) rotate(0 73.42316069354823 38.141478905129674)"><path d="M127.9 65.45 C138.66 70.51, 151.93 72.32, 158.34 76.07 M128.94 66.22 C140.27 70.7, 149.63 74, 157.82 74.54" stroke="#000000" stroke-width="1" fill="none"></path></g></g><g stroke-linecap="round" transform="translate(469 534) rotate(0 56.5 36)"><path d="M-1.17 -1.27 C32.06 1, 63.89 -1.13, 113.8 -1.3 M-0.43 0.95 C38.55 1.64, 77.03 0.9, 113.4 -0.85 M114.28 -0.26 C111.74 19.49, 114.91 37.9, 111.82 72.31 M112.79 -0.94 C112.56 17.71, 112.27 32.97, 112.46 72.17 M113.08 72.03 C67.83 72.67, 22.51 72.98, -0.68 72.1 M113.75 72.89 C70.65 72.84, 28.2 73.29, -0.19 71.04 M0.62 72.93 C-0.09 44.53, -0.42 20.79, 1.37 -1.08 M0.17 71.07 C1.51 48.41, 0.86 26.14, -0.82 -0.25" stroke="#000000" stroke-width="1" fill="none"></path></g><g stroke-linecap="round" transform="translate(852 523) rotate(0 54.5 37)"><path d="M0.73 -0.69 C25.86 -1.17, 51.18 2.19, 107.02 -1.94 M-0.94 0.63 C26.86 -0.99, 53.22 -1.03, 108.11 0.13 M110.01 1.9 C110.54 21.45, 108.52 38.87, 107.77 74.43 M108.94 0.07 C108.6 21.27, 108.22 40.86, 108.77 74.37 M107.24 72.61 C69.19 72.37, 30.47 73.3, 0.46 74.79 M109.86 74.94 C86.21 74.57, 61.34 74.32, 0.68 73.71 M-1.55 72.57 C2.05 57.78, 2.42 42.62, -1.83 1.97 M-0.27 73.06 C0.52 51.81, 0.63 27.67, 0.36 -0.02" stroke="#000000" stroke-width="1" fill="none"></path></g><g stroke-linecap="round" transform="translate(417 657) rotate(0 117 15.5)"><path d="M1.45 1.59 C52.47 1.44, 101.45 1.03, 235.15 -0.5 M-0.65 -0.6 C49.05 1.06, 97.58 1.12, 233.23 0.83 M233.46 -1.89 C234.76 11.28, 234.96 18.65, 234.72 30.96 M233.43 0.25 C234.05 11.19, 234.23 22.66, 234.84 31.45 M235.67 29.86 C170.57 30.16, 104.49 32.5, 0.14 30.79 M233.74 31.5 C142.46 30.81, 49.13 32.1, -0.45 31.45 M-0.27 29.97 C1.63 23.81, 1.4 15.45, 0.38 1.3 M-0.98 30.99 C0.9 25.27, -0.11 19.32, -0.25 0.52" stroke="#000000" stroke-width="1" fill="none"></path></g><g stroke-linecap="round" transform="translate(784 652.5) rotate(0 117 15.5)"><path d="M-0.24 -1.48 C70.14 -1.75, 140.39 0.23, 232.54 -0.33 M-0.34 0.47 C50.55 0.4, 102.36 0.7, 233.59 -0.2 M235.34 1.02 C235.86 4.43, 232.29 14.11, 232.06 31.71 M234.14 0.04 C234.47 11.09, 233.99 22.29, 234.48 31.46 M235.47 31.02 C172.08 27.96, 112.8 29.91, -0.99 31.82 M233.23 31.26 C160.42 30.22, 87.71 31.17, -0.16 30.35 M1.04 32.56 C-0.24 19.04, 1.08 9.15, -1.77 -0.12 M-0.85 31.74 C-0.86 22.27, -0.91 12.12, 0.61 -0.3" stroke="#000000" stroke-width="1" fill="none"></path></g><g transform="translate(485 547) rotate(0 40.5 23)"><text x="40.5" y="18" font-family="Helvetica, Segoe UI Emoji" font-size="20px" fill="#000000" text-anchor="middle" style="white-space: pre;" direction="ltr">Domain</text><text x="40.5" y="41" font-family="Helvetica, Segoe UI Emoji" font-size="20px" fill="#000000" text-anchor="middle" style="white-space: pre;" direction="ltr">Registrar</text></g><g transform="translate(864.5 537) rotate(0 40.5 23)"><text x="40.5" y="18" font-family="Helvetica, Segoe UI Emoji" font-size="20px" fill="#000000" text-anchor="middle" style="white-space: pre;" direction="ltr">Domain</text><text x="40.5" y="41" font-family="Helvetica, Segoe UI Emoji" font-size="20px" fill="#000000" text-anchor="middle" style="white-space: pre;" direction="ltr">Registrar</text></g><g transform="translate(438.5 661) rotate(0 95.5 11.5)"><text x="95.5" y="18" font-family="Helvetica, Segoe UI Emoji" font-size="20px" fill="#000000" text-anchor="middle" style="white-space: pre;" direction="ltr">kube.bahadircan.com</text></g><g transform="translate(791 655) rotate(0 108 11.5)"><text x="0" y="18" font-family="Helvetica, Segoe UI Emoji" font-size="20px" fill="#000000" text-anchor="start" style="white-space: pre;" direction="ltr">grafana.bahadircan.com</text></g><g stroke-linecap="round"><g transform="translate(526 361) rotate(0 -1.5700064842356483 85.80556073217656)"><path d="M0.21 1.11 C-0.22 29.55, -2.25 141.69, -2.95 169.97 M-1.14 0.65 C-1.6 29.26, -2.74 142.41, -3.35 170.96" stroke="#000000" stroke-width="1" fill="none"></path></g><g transform="translate(526 361) rotate(0 -1.5700064842356483 85.80556073217656)"><path d="M-11.34 144.37 C-12.42 150.19, -8.4 156.15, -4.1 172.39 M-13.57 142.33 C-9.2 152.56, -6.59 165.16, -2.62 171.52" stroke="#000000" stroke-width="1" fill="none"></path></g><g transform="translate(526 361) rotate(0 -1.5700064842356483 85.80556073217656)"><path d="M9.18 144.68 C2.58 150.46, 1.07 156.33, -4.1 172.39 M6.95 142.64 C3.4 152.81, -1.91 165.28, -2.62 171.52" stroke="#000000" stroke-width="1" fill="none"></path></g></g><g stroke-linecap="round"><g transform="translate(525 607) rotate(0 1.0106842070817947 26.805678586731688)"><path d="M-0.59 1.11 C-0.2 9.79, 2.08 44.61, 2.61 52.97 M1.3 0.65 C1.48 8.93, 1.41 42.77, 1.46 51.35" stroke="#000000" stroke-width="1" fill="none"></path></g><g transform="translate(525 607) rotate(0 1.0106842070817947 26.805678586731688)"><path d="M-5.65 26.25 C-2.82 34.14, -2.82 42.43, 2.47 50.18 M-7.51 26.76 C-5.12 34.64, -2.69 40.5, 0.67 51.49" stroke="#000000" stroke-width="1" fill="none"></path></g><g transform="translate(525 607) rotate(0 1.0106842070817947 26.805678586731688)"><path d="M12.17 26.21 C9.26 34.03, 3.53 42.33, 2.47 50.18 M10.31 26.73 C7.74 34.48, 5.2 40.34, 0.67 51.49" stroke="#000000" stroke-width="1" fill="none"></path></g></g><g stroke-linecap="round"><g transform="translate(895 352) rotate(0 -0.554369286305473 82.72652668550148)"><path d="M-1.12 0.42 C-1.23 28.22, -0.49 138.31, -0.43 165.86 M0.5 -0.41 C0.16 27.15, -1.82 136.83, -1.6 164.2" stroke="#000000" stroke-width="1" fill="none"></path></g><g transform="translate(895 352) rotate(0 -0.554369286305473 82.72652668550148)"><path d="M-10.97 135.22 C-7.22 143.9, -4.17 154.06, -1.95 163.7 M-11.13 135.09 C-8.23 147, -3.52 156.75, -2.11 165.04" stroke="#000000" stroke-width="1" fill="none"></path></g><g transform="translate(895 352) rotate(0 -0.554369286305473 82.72652668550148)"><path d="M9.55 135.36 C6.7 143.81, 3.13 153.92, -1.95 163.7 M9.39 135.23 C4.46 147.1, 1.34 156.79, -2.11 165.04" stroke="#000000" stroke-width="1" fill="none"></path></g></g><g stroke-linecap="round"><g transform="translate(902 597) rotate(0 0.17366079986095428 26.91112753733063)"><path d="M-1.14 -0.3 C-0.8 8.86, 0.79 44.67, 1.49 53.86 M0.46 -1.5 C0.65 7.95, -0.12 46.24, 0.28 55.32" stroke="#000000" stroke-width="1" fill="none"></path></g><g transform="translate(902 597) rotate(0 0.17366079986095428 26.91112753733063)"><path d="M-9.63 29.15 C-7.24 38.2, -3.22 43.58, -0.85 55.25 M-9.84 30.63 C-6.12 38.61, -1.94 47.69, -0.51 56.06" stroke="#000000" stroke-width="1" fill="none"></path></g><g transform="translate(902 597) rotate(0 0.17366079986095428 26.91112753733063)"><path d="M8.85 29.02 C6.6 37.93, 5.98 43.34, -0.85 55.25 M8.64 30.5 C5.95 38.65, 3.71 47.78, -0.51 56.06" stroke="#000000" stroke-width="1" fill="none"></path></g></g><g stroke-linecap="round"><g transform="translate(154 386) rotate(0 51.397128724408134 51.29453916498255)"><path d="M-0.73 1.09 C-0.96 16.52, -19.4 77.18, -0.65 93.41 C18.1 109.63, 93.02 97.72, 111.77 98.44 M1.09 0.61 C1.18 16.12, -16.66 78.68, 1.72 94.63 C20.11 110.58, 92.94 95.65, 111.41 96.32" stroke="#000000" stroke-width="1" fill="none"></path></g><g transform="translate(154 386) rotate(0 51.397128724408134 51.29453916498255)"><path d="M85.98 107.8 C93.05 105.74, 104.72 101.29, 110.97 97.58 M83.61 109.08 C89.76 105.39, 96.72 104.17, 111.59 95.66" stroke="#000000" stroke-width="1" fill="none"></path></g><g transform="translate(154 386) rotate(0 51.397128724408134 51.29453916498255)"><path d="M84.28 87.35 C92.11 92.78, 104.41 95.79, 110.97 97.58 M81.92 88.62 C88.4 89.43, 95.73 92.7, 111.59 95.66" stroke="#000000" stroke-width="1" fill="none"></path></g></g></svg>